<svg width="139" height="139" viewBox="0 0 139 139" fill="none" xmlns="http://www.w3.org/2000/svg">
<path d="M40.0169 38.2327C40.0916 39.9815 40.7446 41.485 42.0222 42.0228C43.9848 42.8486 46.6581 41.6008 48.0932 38.8079C48.268 38.6198 48.4426 38.4148 48.584 38.2842C49.1966 37.7198 49.7922 37.1822 50.3635 36.5353C53.0301 33.514 54.3298 29.3878 53.2133 25.8843C52.1138 22.4334 48.6093 21.3907 45.4898 23.1768C42.7182 24.7633 40.8953 27.7917 39.2001 30.9834C37.8226 33.5772 38.4094 37.0055 40.0169 38.2327Z" fill="#FFE8DC"/>
<path d="M77.6172 43.344C80.097 43.0582 82.5241 42.3289 84.8873 40.2895C87.0599 38.4137 89.034 35.2163 89.5349 32.0893C89.9214 29.678 89.6065 26.6337 87.696 26.0509C84.5852 25.1026 80.9072 25.845 77.8529 29.3571C76.9677 30.375 76.2252 31.659 75.7847 32.9864C74.3641 34.438 73.2831 36.8034 73.2733 38.7155C73.2558 42.1528 75.0747 43.6366 77.6172 43.344Z" fill="#FFE8DC"/>
<path d="M55.9855 96.6482C55.8265 96.2986 55.6383 95.9849 55.4362 95.6895C54.5828 94.4438 53.3766 93.671 52.0114 93.3717C51.5557 93.2723 51.1092 93.2216 50.6325 93.1938C50.1917 93.168 49.3833 92.8741 50.0434 93.4365C48.6543 92.2539 46.7214 92.2235 45.0172 93.5692C44.0896 93.3754 43.0546 93.5418 42.1504 94.0896C39.9434 95.4279 38.84 97.9973 38.6684 100.568C38.6335 101.088 38.6228 101.608 38.6643 102.118C38.7747 103.473 39.091 104.693 39.5687 105.759C41.6256 110.349 46.6887 112.067 51.3023 109.282C53.6662 107.855 55.5572 105.121 56.2902 102.252C56.781 100.328 56.7569 98.3432 55.9855 96.6482ZM49.3191 98.6664L49.32 98.6646C49.7345 98.5381 49.7318 98.5398 49.3191 98.6664Z" fill="#FFE8DC"/>
<path d="M133.87 67.0243C133.363 64.7874 132.126 63.0977 130.624 61.7728C129.101 60.4297 127.305 59.4612 125.716 58.6812C122.917 57.3065 120.098 60.319 119.067 63.638C117.718 63.1759 115.965 63.6771 114.647 64.9704C114.101 65.5056 113.661 66.1135 113.303 66.7567C112.125 68.8767 111.946 71.4238 112.684 73.3937C113.289 75.0072 114.341 76.4268 115.654 77.5798C119.147 80.6438 124.548 81.7599 128.752 79.1454C130.599 77.9971 132.118 76.095 133.06 73.9294C134.016 71.7299 134.376 69.2582 133.87 67.0243ZM126.246 68.5484C127.062 68.8647 126.836 67.9362 126.246 68.5484V68.5484ZM124.822 72.8881C124.825 72.8742 124.829 72.8598 124.832 72.8453C125.27 73.3026 125.268 73.3187 124.822 72.8881Z" fill="#FFE8DC"/>
</svg>
