<svg width="180" height="182" viewBox="0 0 180 182" fill="none" xmlns="http://www.w3.org/2000/svg">
<path d="M42.0278 135.441C40.0415 134.933 37.3852 137.509 36.4583 140.214C34.4997 141.409 32.543 144.085 32.6996 146.762C32.9381 150.836 34.1373 154.255 36.9321 155.817C39.7018 157.364 43.3937 156.274 46.0204 152.549C48.2636 149.366 49.2002 144.988 48.4252 141.661C47.5407 137.862 44.9495 136.188 42.0278 135.441Z" fill="#FFE8DC"/>
<path d="M69.5978 65.9228C69.3163 61.6349 66.5795 58.6377 62.9416 59.7124C62.0784 59.9674 61.2163 60.5444 60.4634 61.3233C59.5163 60.896 58.3777 60.9585 57.2163 61.748C54.3892 63.6703 52.5488 67.2419 52.2937 70.7094C52.2002 71.9886 52.3153 73.2541 52.686 74.4166C52.8301 74.8695 53.0098 75.274 53.2113 75.6472C54.8603 78.7038 58.3008 79.1553 61.5791 77.8582C64.2657 76.7953 67.0669 74.5709 68.5509 71.4321C69.1929 70.0735 69.592 68.5462 69.6217 66.8637C69.6276 66.5436 69.618 66.2304 69.5978 65.9228Z" fill="#FFE8DC"/>
<path d="M145.941 28.843C144.614 26.3146 141.969 25.3413 139.297 26.0578C136.644 26.7689 134.233 29.0876 132.113 31.6195C130.713 33.2904 129.725 35.4126 129.646 37.4208C129.609 38.3362 129.761 39.228 130.149 40.043C130.573 40.932 131.35 41.5662 132.256 41.8492C132.288 41.859 132.317 41.877 132.349 41.8861C132.337 42.3346 132.36 42.7645 132.433 43.1546C133.018 46.3024 135.428 46.8661 137.901 45.7439C140.563 44.5361 143.099 42.6894 144.914 39.4917C145.154 39.0686 145.37 38.6331 145.568 38.1912C146.355 36.4252 146.781 34.5443 146.793 32.7843C146.802 31.343 146.539 29.9824 145.941 28.843ZM138.278 33.8658C138.336 33.8354 138.393 33.8053 138.451 33.7748C138.391 33.8177 138.328 33.8492 138.268 33.8895C138.27 33.8834 138.277 33.8717 138.278 33.8658Z" fill="#FFE8DC"/>
<path d="M101.985 83.7163C104.975 83.1749 107.83 79.7735 108.693 75.8935C109.621 71.7227 108.195 67.7087 104.981 67.5322C104.345 67.4973 103.669 67.6647 103.009 67.9861C101.981 67.2705 100.607 67.2756 99.1056 67.9991C95.6916 69.6437 94.0963 75.2033 94.9983 78.6492C95.9431 82.2606 98.748 84.3023 101.985 83.7163Z" fill="#FFE8DC"/>
<path d="M110.059 111.296C107.668 111.808 105.261 115.307 105.246 118.346C105.246 118.504 105.269 118.645 105.276 118.797C104.455 120.121 103.907 121.703 103.9 123.059C103.883 126.493 105.702 127.984 108.244 127.687C107.982 127.703 107.8 127.717 107.692 127.731C107.709 127.737 107.725 127.741 107.745 127.749C107.724 127.744 107.702 127.738 107.679 127.733C107.496 127.757 107.557 127.779 107.865 127.798C107.871 127.799 107.874 127.8 107.88 127.801C108.17 127.918 108.587 128.11 108.645 128.132C109.869 128.603 111.039 128.92 112.45 128.646C115.393 128.074 118.206 124.866 119.131 121.015C119.953 117.588 119.218 114.199 117.408 112.417C115.474 110.513 112.725 110.725 110.059 111.296ZM113.67 116.818L113.642 116.806C113.831 116.758 113.934 116.736 113.67 116.818Z" fill="#FFE8DC"/>
</svg>
