<svg xmlns="http://www.w3.org/2000/svg" width="auto" height="auto" viewBox="0 0 192 192" fill="none">
<path d="M152.22 56.0521V148.122C152.22 152.593 148.591 156.222 144.12 156.222H72.1002C67.6291 156.222 64 152.593 64 148.122V56.0521C64 51.581 67.6291 47.9519 72.1002 47.9519H86.0551V55.9719C86.0551 58.1775 87.8596 59.982 90.0651 59.982H100.09L104.1 55.9719H112.12L116.13 59.982H126.155C128.361 59.982 130.165 58.1775 130.165 55.9719V47.9519H144.12C148.591 47.9519 152.22 51.581 152.22 56.0521Z" fill="#EE4D4E"/>
<path d="M142.196 55.9719V128.553L124.151 146.197H74.0254V55.9719H86.0554C86.0554 58.1774 87.86 59.9819 90.0655 59.9819H100.091L104.101 55.9719H112.121L116.131 59.9819H126.156C128.361 59.9819 130.166 58.1774 130.166 55.9719H142.196Z" fill="white"/>
<path d="M142.195 128.152L124.15 146.197V128.152H142.195Z" fill="#E6E7E8"/>
<path d="M130.165 47.9519V55.9719C130.165 58.1775 128.36 59.982 126.155 59.982H116.13L112.12 55.9719H104.1L100.09 59.982H90.0647C87.8592 59.982 86.0547 58.1775 86.0547 55.9719V47.9519C86.0547 45.7464 87.8592 43.9419 90.0647 43.9419H126.155C128.36 43.9419 130.165 45.7464 130.165 47.9519Z" fill="#E32728"/>
</svg>